<svg width="60" height="56" viewBox="0 0 60 56" version="1.1" xmlns="http://www.w3.org/2000/svg" xmlns:xlink="http://www.w3.org/1999/xlink">
<title>Vector</title>
<desc>Created using Figma</desc>
<g id="Canvas" transform="translate(-452 564)">
<g id="Vector">
<use xlink:href="#path0_fill" transform="translate(452 -564)" fill="#FFFFFF"/>
</g>
</g>
<defs>
<path id="path0_fill" d="M 32.5385 14.2857C 32.7692 14.6286 33.1154 14.8571 33.4615 14.8571C 33.6923 14.8571 33.9231 14.8571 34.0385 14.6286L 43.2692 8.91429C 43.3846 8.8 43.5 8.8 43.5 8.68571C 43.5 8.68571 43.5 8.68571 43.5 8.57143C 43.5 8.57143 43.5 8.45714 43.6154 8.45714C 43.6154 8.34286 43.7308 8.34286 43.7308 8.22857C 43.7308 8.11429 43.7308 8.11429 43.7308 8C 43.7308 7.88571 43.7308 7.88571 43.7308 7.77143C 43.7308 7.65714 43.7308 7.65714 43.6154 7.54286L 43.6154 7.42857C 43.6154 7.31429 43.5 7.31429 43.5 7.31429L 43.3846 7.2L 34.1538 1.48571C 33.5769 1.14286 32.8846 1.37143 32.5385 1.82857C 32.1923 2.4 32.3077 3.08571 32.8846 3.42857L 40.5 8L 32.8846 12.8C 32.3077 13.0286 32.1923 13.8286 32.5385 14.2857ZM 26.5385 46.2857C 26.5385 47.2 28.0385 48 30 48C 31.9615 48 33.4615 47.2 33.4615 46.2857C 33.4615 45.4857 32.5385 44.9143 31.1538 44.6857L 31.1538 1.14286C 31.1538 0.457143 30.6923 0 30 0C 29.3077 0 28.8462 0.457143 28.8462 1.14286L 28.8462 44.6857C 27.4615 44.9143 26.5385 45.4857 26.5385 46.2857ZM 33 35.4286C 33 36.2286 33 36.9143 33.1154 37.7143C 47.7692 38.2857 57.6923 42.1714 57.6923 45.7143C 57.6923 49.4857 46.2692 53.7143 30 53.7143C 13.7308 53.7143 2.30769 49.4857 2.30769 45.7143C 2.30769 42.1714 12.3462 38.2857 27 37.7143L 27 35.4286C 13.3846 35.8857 0 39.4286 0 45.7143C 0 52.3429 15.4615 56 30 56C 44.5385 56 60 52.3429 60 45.7143C 60 39.5429 46.6154 35.8857 33 35.4286Z"/>
</defs>
</svg>
