<svg width="46" height="51" viewBox="0 0 46 51" version="1.1" xmlns="http://www.w3.org/2000/svg" xmlns:xlink="http://www.w3.org/1999/xlink">
<title>communication-0655</title>
<desc>Created using Figma</desc>
<g id="Canvas" transform="translate(-876 631)">
<g id="communication-0655">
<g id="Group">
<g id="Group">
<g id="Vector">
<use xlink:href="#path0_fill" transform="translate(876 -631)" fill="#FFFFFF"/>
</g>
</g>
</g>
</g>
</g>
<defs>
<path id="path0_fill" d="M 39.9 16.2C 40.4 14.8 40.7 13.3 40.7 11.6C 40.7 5.2 36.3 0 30.8 0C 26.6 0 22.9 3.1 21.5 7.8C 20.4 7.4 19.2 7.2 18 7.2C 11.6 7.2 6.3 13.4 6.3 21C 6.3 28.6 11.5 34.8 18 34.8C 22.1 34.8 25.7 32.3 27.8 28.5C 30.4 30.5 32.3 33.2 33.3 36.2C 33.8 37.8 34.1 39.5 34.1 41.2C 34.1 43.8 33.2 46.6 32 48.9L 4 48.9C 2.8 46.6 2 43.8 2 41.2C 2 38 3 34.8 4.8 32.2L 3.1 31C 1.1 34 0 37.5 0 41.2C 0 44.4 0.8 47.5 2.4 50.2L 3 50.8L 33 50.8L 33.7 50.1C 35.3 47.4 36.1 44.2 36.1 41.1C 36.1 39.6 35.9 38.1 35.5 36.6L 43.1 36.6L 43.4 36.1C 44.4 34.5 46 31.4 46 28.2C 46 23.5 43.7 19 39.9 16.2ZM 30.8 2C 35.1 2 38.6 6.3 38.6 11.6C 38.6 16.9 35.1 21.2 30.8 21.2C 30.4 21.2 30 21.2 29.7 21.1C 29.7 21 29.7 21 29.7 20.9C 29.7 15.6 27.1 10.9 23.4 8.6C 24.4 4.7 27.4 2 30.8 2ZM 18.1 32.7C 12.8 32.7 8.4 27.4 8.4 20.9C 8.4 14.4 12.7 9.1 18.1 9.1C 23.5 9.1 27.8 14.4 27.8 20.9C 27.7 27.4 23.4 32.7 18.1 32.7ZM 42 34.7L 34.9 34.7C 33.7 31.5 31.5 28.6 28.7 26.6C 29.1 25.5 29.4 24.4 29.6 23.1C 30 23.2 30.5 23.2 30.9 23.2C 34.3 23.2 37.3 21.1 39.1 18C 42.2 20.5 44.1 24.3 44.1 28.3C 44 30.7 42.8 33.2 42 34.7Z"/>
</defs>
</svg>
