<svg width="24" height="48" viewBox="0 0 24 48" version="1.1" xmlns="http://www.w3.org/2000/svg" xmlns:xlink="http://www.w3.org/1999/xlink">
<title>sports &#38; games-2460</title>
<desc>Created using Figma</desc>
<g id="Canvas" transform="translate(-416 238)">
<g id="sports &#38; games-2460">
<g id="Page 1">
<g id="sport new 12">
<g id="Fill 55">
<use xlink:href="#path0_fill" transform="translate(420.188 -221.385)" fill="#FFFFFF"/>
</g>
<g id="Fill 56">
<use xlink:href="#path1_fill" transform="translate(416 -217.692)" fill="#FFFFFF"/>
</g>
<g id="Fill 57">
<use xlink:href="#path2_fill" transform="translate(418.769 -238)" fill="#FFFFFF"/>
</g>
</g>
</g>
</g>
</g>
<defs>
<path id="path0_fill" fill-rule="evenodd" d="M 13.6945 5.53846L 1.92893 5.53846C 1.14616 5.53846 0.446466 5.07139 0.147389 4.34862C -0.151688 3.62585 0.0126195 2.80154 0.565543 2.24862L 2.81416 0L 12.8092 0L 15.0579 2.24862C 15.6108 2.80154 15.7751 3.62585 15.476 4.34862C 15.1769 5.07139 14.4772 5.53846 13.6945 5.53846ZM 3.57847 1.84615L 1.87077 3.55385L 1.92893 3.69231L 13.6945 3.69231C 13.7175 3.69231 13.7499 3.69231 13.7702 3.64246L 12.0357 1.84615L 3.57847 1.84615Z"/>
<path id="path1_fill" fill-rule="evenodd" d="M 22.3062 27.6923L 1.69385 27.6923C 0.759692 27.6923 0 26.9326 0 25.9985L 0 19.6671C 0 18.6794 0.406154 17.7323 1.11415 17.0695C 4.92369 13.512 6.72185 8.09077 6.46246 0.956307L 6.42738 0L 17.5726 0L 17.5375 0.956307C 17.2782 8.09077 19.0763 13.512 22.8849 17.0686C 23.5938 17.7323 24 18.6794 24 19.6671L 24 25.9985C 24 26.9326 23.2403 27.6923 22.3062 27.6923ZM 1.84615 25.8462L 22.1538 25.8462L 22.1538 19.6671C 22.1538 19.188 21.9609 18.7329 21.624 18.4172C 17.5846 14.6446 15.5834 9.072 15.6702 1.84615L 8.32985 1.84615C 8.41662 9.072 6.41538 14.6446 2.37508 18.4182C 2.03908 18.7329 1.84615 19.188 1.84615 19.6671L 1.84615 25.8462Z"/>
<path id="path2_fill" fill-rule="evenodd" d="M 9.23077 18.4615C 4.14092 18.4615 0 14.3206 0 9.23077C 0 4.14092 4.14092 0 9.23077 0C 14.3206 0 18.4615 4.14092 18.4615 9.23077C 18.4615 14.3206 14.3206 18.4615 9.23077 18.4615ZM 9.23077 1.84615C 5.15908 1.84615 1.84615 5.15908 1.84615 9.23077C 1.84615 13.3025 5.15908 16.6154 9.23077 16.6154C 13.3025 16.6154 16.6154 13.3025 16.6154 9.23077C 16.6154 5.15908 13.3025 1.84615 9.23077 1.84615Z"/>
</defs>
</svg>
