<svg width="58" height="58" viewBox="0 0 58 58" version="1.1" xmlns="http://www.w3.org/2000/svg" xmlns:xlink="http://www.w3.org/1999/xlink">
<title>auto &#38; tools-0196</title>
<desc>Created using Figma</desc>
<g id="Canvas" transform="translate(-355 322)">
<g id="auto &#38; tools-0196">
<g id="Page 1">
<g id="28 auto">
<g id="Fill 124">
<use xlink:href="#path0_fill" transform="translate(355 -322)" fill="#FFFFFF"/>
</g>
<g id="Fill 125">
<use xlink:href="#path1_fill" transform="translate(361 -316)" fill="#FFFFFF"/>
</g>
<g id="Fill 126">
<use xlink:href="#path2_fill" transform="translate(397.025 -296.709)" fill="#FFFFFF"/>
</g>
<g id="Fill 127">
<use xlink:href="#path3_fill" transform="translate(369.917 -287)" fill="#FFFFFF"/>
</g>
<g id="Fill 128">
<use xlink:href="#path4_fill" transform="translate(362.011 -296.709)" fill="#FFFFFF"/>
</g>
<g id="Fill 129">
<use xlink:href="#path5_fill" transform="translate(365.02 -306)" fill="#FFFFFF"/>
</g>
<g id="Fill 130">
<use xlink:href="#path6_fill" transform="translate(378 -301)" fill="#FFFFFF"/>
</g>
</g>
</g>
</g>
</g>
<defs>
<path id="path0_fill" fill-rule="evenodd" d="M 29 58C 13.009 58 0 44.991 0 29C 0 13.009 13.009 0 29 0C 44.991 0 58 13.009 58 29C 58 44.991 44.991 58 29 58ZM 29 2C 14.112 2 2 14.112 2 29C 2 43.888 14.112 56 29 56C 43.888 56 56 43.888 56 29C 56 14.112 43.888 2 29 2Z"/>
<path id="path1_fill" fill-rule="evenodd" d="M 23 46C 10.318 46 0 35.682 0 23C 0 10.318 10.318 0 23 0C 35.682 0 46 10.318 46 23C 46 35.682 35.682 46 23 46ZM 23 2C 11.42 2 2 11.42 2 23C 2 34.58 11.42 44 23 44C 34.58 44 44 34.58 44 23C 44 11.42 34.58 2 23 2Z"/>
<path id="path2_fill" fill-rule="evenodd" d="M 5.61917 15.758C 3.61417 14.673 1.99317 12.976 0.799168 10.714C -0.139832 8.932 -0.256835 6.841 0.477165 4.978C 1.20617 3.128 2.70516 1.69 4.58916 1.035C 5.84016 0.599 7.24617 0.251 8.76917 3.66211e-07L 9.09517 1.973C 7.68517 2.206 6.39017 2.526 5.24717 2.924C 3.91317 3.388 2.85317 4.404 2.33817 5.711C 1.81717 7.032 1.90117 8.515 2.56917 9.781C 3.57417 11.687 4.92017 13.106 6.57117 13.999L 5.61917 15.758Z"/>
<path id="path3_fill" fill-rule="evenodd" d="M 26.524 12.091C 24.907 9.331 20.609 2 14.083 2C 8.268 2 3.504 9.057 1.726 12.091L -1.83105e-07 11.079C 1.953 7.748 7.234 0 14.083 0C 21.755 0 26.474 8.049 28.25 11.079L 26.524 12.091Z"/>
<path id="path4_fill" fill-rule="evenodd" d="M 3.513 15.758L 2.561 13.999C 4.207 13.109 5.552 11.689 6.558 9.781C 7.224 8.519 7.307 7.039 6.787 5.72C 6.27 4.408 5.207 3.389 3.87 2.924C 2.739 2.53 1.437 2.21 1.56403e-07 1.973L 0.325 3.66211e-07C 1.875 0.255 3.289 0.604 4.528 1.035C 6.415 1.692 7.917 3.132 8.648 4.987C 9.382 6.848 9.265 8.936 8.328 10.713C 7.134 12.978 5.513 14.676 3.513 15.758Z"/>
<path id="path5_fill" fill-rule="evenodd" d="M 37.9 2.749C 35.379 2.564 27.705 2 18.98 2C 11.464 2 3.954 2.47 0.147 2.749L 4.57764e-07 0.754999C 3.835 0.472999 11.4 0 18.98 0C 27.778 0 35.507 0.567999 38.047 0.754999L 37.9 2.749Z"/>
<path id="path6_fill" fill-rule="evenodd" d="M 6 12C 2.691 12 0 9.308 0 6C 0 2.692 2.691 0 6 0C 9.309 0 12 2.692 12 6C 12 9.308 9.309 12 6 12ZM 6 2C 3.794 2 2 3.794 2 6C 2 8.206 3.794 10 6 10C 8.206 10 10 8.206 10 6C 10 3.794 8.206 2 6 2Z"/>
</defs>
</svg>
