<svg width="60" height="38" viewBox="0 0 60 38" version="1.1" xmlns="http://www.w3.org/2000/svg" xmlns:xlink="http://www.w3.org/1999/xlink">
<title>travel &#38; transport-2728</title>
<desc>Created using Figma</desc>
<g id="Canvas" transform="translate(-452 415)">
<g id="travel &#38; transport-2728">
<g id="Group">
<g id="Group">
<g id="Vector">
<use xlink:href="#path0_fill" transform="translate(452 -415)" fill="#FFFFFF"/>
</g>
</g>
</g>
</g>
</g>
<defs>
<path id="path0_fill" d="M 45.5556 15.6471C 45.5556 7.04118 38.5556 0 30 0C 21.4444 0 14.4444 7.04118 14.4444 15.6471C 14.4444 24.2529 21.4444 31.2941 30 31.2941C 38.5556 31.2941 45.5556 24.2529 45.5556 15.6471ZM 30 29.0588C 22.6667 29.0588 16.6667 23.0235 16.6667 15.6471C 16.6667 8.27059 22.6667 2.23529 30 2.23529C 37.3333 2.23529 43.3333 8.27059 43.3333 15.6471C 43.3333 23.0235 37.3333 29.0588 30 29.0588ZM 49 12.4059L 48.6667 14.6412C 53.7778 15.4235 57.6667 19.8941 57.6667 25.1471C 57.6667 30.9588 52.8889 35.7647 47.1111 35.7647C 43.8889 35.7647 40.8889 34.3118 38.7778 31.7412L 37 33.0824C 39.4444 36.2118 43.1111 38 47 38C 54.2222 38 60 32.1882 60 25.1471C 60 18.7765 55.3333 13.3 49 12.4059ZM 12.7778 35.7647C 7 35.7647 2.22222 30.9588 2.22222 25.1471C 2.22222 19.8941 6.11111 15.4235 11.2222 14.6412L 10.8889 12.4059C 4.66667 13.3 0 18.7765 0 25.1471C 0 32.1882 5.77778 38 12.7778 38C 16.6667 38 20.3333 36.2118 22.7778 33.0824L 21.1111 31.7412C 19 34.3118 16 35.7647 12.7778 35.7647ZM 23.5556 8.49412L 29.1111 16.3176L 30.8889 14.9765L 25.3333 7.15294L 23.5556 8.49412ZM 7.22222 30.0647L 12.7778 26.7118L 11.6667 24.8118L 6.11111 28.1647L 7.22222 30.0647ZM 53.8889 22.2412L 52.7778 20.3412L 47.2222 23.6941L 48.3333 25.5941L 53.8889 22.2412Z"/>
</defs>
</svg>
