<svg width="58" height="57" viewBox="0 0 58 57" version="1.1" xmlns="http://www.w3.org/2000/svg" xmlns:xlink="http://www.w3.org/1999/xlink">
<title>space-2389</title>
<desc>Created using Figma</desc>
<g id="Canvas" transform="translate(-419 327)">
<g id="space-2389">
<g id="Group">
<g id="Group">
<g id="Vector">
<use xlink:href="#path0_fill" transform="translate(419 -327)" fill="#FFFFFF"/>
</g>
</g>
</g>
</g>
</g>
<defs>
<path id="path0_fill" d="M 29 12C 14.8 12 7 16.4 7 24.5C 7 40.3 22.4 42 29 42C 35.6 42 51 40.3 51 24.5C 51 16.4 43.2 12 29 12ZM 29 40C 11.6 40 9 30.3 9 24.5C 9 15.4 21.5 14 29 14C 36.5 14 49 15.4 49 24.5C 49 30.3 46.4 40 29 40ZM 56 21.2C 56 21.1 56 21.1 56 21C 56 11.1 47.9 0 37 0L 21 0C 10.1 0 2 11.1 2 21C 2 21.1 2 21.1 2 21.2C 0.8 21.6 0 22.7 0 24L 0 35C 0 36.7 1.3 38 3 38L 4.7 38C 5.5 40.3 6.5 42.4 7.8 44.3L 6 55.8C 6 56.1 6 56.4 6.2 56.6C 6.4 56.9 6.7 57 7 57L 52 57C 52.6 57 53 56.6 53 56C 53 55.9 53 55.8 52.9 55.7L 51 43.1C 51.9 41.6 52.7 39.9 53.3 38L 55 38C 56.7 38 58 36.7 58 35L 58 24C 58 22.7 57.1 21.6 56 21.2ZM 3 36C 2.4 36 2 35.6 2 35L 2 24C 2 23.4 2.4 23 3 23C 3.1 23 3.2 23 3.3 22.9C 3.1 24.1 3 25.3 3 26.5C 3 30 3.4 33.1 4.1 36L 3 36ZM 8.2 55L 9.5 46.4C 13.9 51.4 20.5 54 29 54C 38 54 44.9 51 49.4 45.4L 50.9 55L 8.2 55ZM 29 52C 8.1 52 5 36 5 26.5C 5 11.3 20 9 29 9C 38 9 53 11.3 53 26.5C 53 36 49.9 52 29 52ZM 29 7C 15.5 7 6.9 11.5 4 19.8C 4.6 11.2 11.7 2 21 2L 37 2C 46.3 2 53.4 11.2 54 19.8C 51.1 11.5 42.5 7 29 7ZM 56 35C 56 35.6 55.6 36 55 36L 53.9 36C 54.6 33.1 55 30 55 26.5C 55 25.3 54.9 24.1 54.7 22.9C 54.8 22.9 54.9 23 55 23C 55.6 23 56 23.4 56 24L 56 35ZM 22.5 21.9C 23 21.6 23.1 21 22.9 20.5C 22.6 20 22 19.9 21.5 20.1L 14.5 24.1C 14 24.4 13.9 25 14.1 25.5C 14.3 25.8 14.6 26 15 26C 15.2 26 15.3 26 15.5 25.9L 22.5 21.9ZM 34.5 19.1L 15.5 29.1C 15 29.4 14.8 30 15.1 30.5C 15.3 30.8 15.6 31 16 31C 16.2 31 16.3 31 16.5 30.9L 35.5 20.9C 36 20.6 36.2 20 35.9 19.5C 35.6 19 35 18.9 34.5 19.1Z"/>
</defs>
</svg>
