<svg width="48" height="59" viewBox="0 0 48 59" version="1.1" xmlns="http://www.w3.org/2000/svg" xmlns:xlink="http://www.w3.org/1999/xlink">
<title>space-2393</title>
<desc>Created using Figma</desc>
<g id="Canvas" transform="translate(-458 293)">
<g id="space-2393">
<g id="Group">
<g id="Group">
<g id="Vector">
<use xlink:href="#path0_fill" transform="translate(458 -293)" fill="#FFFFFF"/>
</g>
</g>
</g>
</g>
</g>
<defs>
<path id="path0_fill" d="M 25.4087 18.2398C 23.9478 16.7848 21.6522 16.7848 20.1913 18.2398L 1.09565 37.1551C -0.365217 38.6102 -0.365217 41.0006 1.09565 42.3516L 5.26957 46.5089C 6.73043 47.9639 9.02609 47.9639 10.487 46.5089L 11.8435 45.1578L 19.3565 57.4216C 19.8783 58.253 20.713 58.8766 21.6522 58.9805C 22.5913 59.0844 23.5304 58.7727 24.2609 58.0451L 26.7652 55.5508C 28.1217 54.1997 28.4348 51.8093 27.3913 50.1464L 20.713 39.1298C 21.7565 39.1298 23.0087 38.9219 24.3652 38.2984C 24.4696 38.1944 24.5739 38.1944 24.6783 38.0905C 24.9913 37.7787 25.0957 37.363 24.887 36.9473C 24.6783 36.4276 24.0522 36.2198 23.5304 36.4276C 22.0696 37.1551 20.9217 37.1551 20.087 36.9473L 29.4783 27.5935C 30.9391 26.1385 30.9391 23.7481 29.4783 22.397L 25.4087 18.2398ZM 28.2261 26.1385L 17.7913 36.5315L 17.1652 37.2591L 17.7913 37.9866L 17.8957 38.0905L 25.8261 51.1857C 26.3478 52.0172 26.1391 53.3683 25.513 54.0958L 23.0087 56.5901C 22.6957 56.9019 22.3826 57.0058 22.1739 57.0058C 21.8609 57.0058 21.6522 56.798 21.4435 56.4862L 13.513 43.391C 13.513 43.287 13.4087 43.287 13.4087 43.1831L 12.5739 41.7281L 9.13043 45.1578C 8.50435 45.7814 7.46087 45.7814 6.83478 45.1578L 2.66087 41.0006C 2.03478 40.377 2.03478 39.3377 2.66087 38.7141L 21.6522 19.6948C 22.2783 19.0712 23.3217 19.0712 23.9478 19.6948L 28.1217 23.852C 28.8522 24.4756 28.8522 25.5149 28.2261 26.1385ZM 16.2261 43.8067C 15.8087 44.2224 15.8087 44.846 16.2261 45.2617C 16.6435 45.6774 17.2696 45.6774 17.687 45.2617C 18.1043 44.846 18.1043 44.2224 17.687 43.8067C 17.2696 43.391 16.6435 43.391 16.2261 43.8067ZM 22.9043 53.4722C 23.3217 53.0565 23.3217 52.4329 22.9043 52.0172C 22.487 51.6015 21.8609 51.6015 21.4435 52.0172C 21.0261 52.4329 21.0261 53.0565 21.4435 53.4722C 21.8609 53.8879 22.5913 53.8879 22.9043 53.4722ZM 18.8348 25.8267C 18.4174 25.411 17.7913 25.411 17.3739 25.8267L 8.50435 34.6608C 8.08696 35.0765 8.08696 35.7001 8.50435 36.1158C 8.92174 36.5315 9.54783 36.5315 9.96522 36.1158L 18.8348 27.2817C 19.2522 26.9699 19.2522 26.2424 18.8348 25.8267ZM 19.3565 27.8014L 10.487 36.6355C 10.0696 37.0512 10.0696 37.6748 10.487 38.0905C 10.9043 38.5062 11.5304 38.5062 11.9478 38.0905L 20.8174 29.2564C 21.2348 28.8407 21.2348 28.2171 20.8174 27.8014C 20.4 27.4896 19.7739 27.4896 19.3565 27.8014ZM 27.0783 13.9786C 26.6609 13.5629 25.8261 13.5629 25.4087 13.9786C 24.9913 14.3944 24.9913 15.2258 25.4087 15.6415L 32.1913 22.397C 32.6087 22.8127 33.4435 22.8127 33.8609 22.397C 34.2783 21.9813 34.2783 21.1498 33.8609 20.7341L 27.0783 13.9786ZM 30.1043 11.0686C 29.687 10.6529 28.8522 10.6529 28.4348 11.0686C 28.0174 11.4843 28.0174 12.3158 28.4348 12.7315L 35.2174 19.487C 35.6348 19.9027 36.4696 19.9027 36.887 19.487C 37.3043 19.0712 37.3043 18.2398 36.887 17.8241L 30.1043 11.0686ZM 43.3565 3.16988L 33.8609 10.3411C 33.6522 10.5489 33.4435 10.7568 33.4435 11.0686C 33.4435 11.3804 33.5478 11.6922 33.7565 11.9L 36.0522 14.1865C 36.2609 14.3944 36.5739 14.4983 36.887 14.4983C 37.0957 14.4983 37.4087 14.3944 37.513 14.1865L 37.6174 14.0826L 44.8174 4.6249C 45.1304 4.20918 45.1304 3.5856 44.713 3.27381C 44.2957 2.96202 43.7739 2.85809 43.3565 3.16988ZM 36.6783 11.9L 36.0522 11.2765L 38.5565 9.4057L 36.6783 11.9ZM 47.5304 0.467687C 46.9043 -0.155896 45.8609 -0.155896 45.2348 0.467687C 44.6087 1.09127 44.6087 2.13057 45.2348 2.75416C 45.8609 3.37774 46.9043 3.37774 47.5304 2.75416C 48.1565 2.13057 48.1565 1.09127 47.5304 0.467687Z"/>
</defs>
</svg>
