<?xml version="1.0" standalone="no"?>
<!DOCTYPE svg PUBLIC "-//W3C//DTD SVG 20010904//EN"
 "http://www.w3.org/TR/2001/REC-SVG-20010904/DTD/svg10.dtd">
<svg version="1.0" xmlns="http://www.w3.org/2000/svg"
 width="583.000000pt" height="583.000000pt" viewBox="0 0 583.000000 583.000000"
 preserveAspectRatio="xMidYMid meet">
<metadata>
Created by potrace 1.11, written by Peter Selinger 2001-2013
</metadata>
<g transform="translate(0.000000,583.000000) scale(0.100000,-0.100000)"
fill="#000000" stroke="none">
<path d="M0 2915 l0 -2915 2915 0 2915 0 0 2915 0 2915 -2915 0 -2915 0 0
-2915z m3167 1370 c622 -80 988 -394 1048 -897 l7 -58 -414 0 -415 0 -16 58
c-45 162 -181 240 -432 250 -205 7 -325 -34 -372 -128 -57 -112 7 -219 160
-269 34 -11 212 -46 395 -76 340 -57 491 -94 625 -154 153 -69 300 -188 376
-305 114 -174 149 -434 90 -663 -98 -386 -454 -635 -1003 -703 -114 -14 -447
-14 -562 0 -593 73 -970 364 -1078 830 -13 58 -27 126 -31 153 l-6 47 415 0
415 0 12 -42 c29 -111 94 -191 196 -245 97 -52 170 -67 333 -67 155 -1 222 10
301 50 111 55 141 165 69 248 -55 62 -115 80 -520 150 -410 72 -476 87 -608
144 -239 103 -398 276 -468 507 -25 81 -27 105 -27 245 0 139 2 164 26 243 47
154 110 258 222 369 176 174 426 275 800 321 82 10 356 5 462 -8z"/>
</g>
</svg>
