<svg width="56" height="47" viewBox="0 0 56 47" version="1.1" xmlns="http://www.w3.org/2000/svg" xmlns:xlink="http://www.w3.org/1999/xlink">
<title>sports &#38; games-2433</title>
<desc>Created using Figma</desc>
<g id="Canvas" transform="translate(-595 424)">
<g id="sports &#38; games-2433">
<g id="Group">
<g id="Group">
<g id="Vector">
<use xlink:href="#path0_fill" transform="translate(595 -424)" fill="#FFFFFF"/>
</g>
</g>
</g>
</g>
</g>
<defs>
<path id="path0_fill" d="M 54.0936 40.4L 31.3936 2.6C 30.3936 0.9 28.9936 0 27.4936 0C 25.9936 0 24.5936 0.9 23.5936 2.6L 0.893636 40.4C -0.106364 42.1 -0.306364 43.7 0.493636 45C 1.19364 46.3 2.69364 47 4.69364 47L 50.3936 47C 52.3936 47 53.7936 46.3 54.5936 45C 55.2936 43.7 55.0936 42 54.0936 40.4ZM 52.7936 44C 52.3936 44.6 51.4936 45 50.3936 45L 4.59364 45C 3.39364 45 2.49364 44.6 2.19364 44C 1.79364 43.4 1.99364 42.4 2.59364 41.4L 25.2936 3.6C 25.8936 2.6 26.6936 2 27.4936 2C 28.2936 2 29.0936 2.6 29.6936 3.6L 52.3936 41.4C 52.9936 42.4 53.1936 43.4 52.7936 44ZM 27.4936 19.1C 30.1936 19.1 32.4936 16.9 32.4936 14.1C 32.4936 11.4 30.2936 9.1 27.4936 9.1C 24.7936 9.1 22.4936 11.3 22.4936 14.1C 22.4936 16.9 24.7936 19.1 27.4936 19.1ZM 27.4936 11.1C 29.0936 11.1 30.4936 12.4 30.4936 14.1C 30.4936 15.7 29.1936 17.1 27.4936 17.1C 25.8936 17.1 24.4936 15.8 24.4936 14.1C 24.4936 12.5 25.8936 11.1 27.4936 11.1ZM 26.4936 25.1C 26.4936 22.4 24.2936 20.1 21.4936 20.1C 18.7936 20.1 16.4936 22.3 16.4936 25.1C 16.4936 27.8 18.6936 30.1 21.4936 30.1C 24.2936 30.1 26.4936 27.8 26.4936 25.1ZM 21.4936 28.1C 19.8936 28.1 18.4936 26.8 18.4936 25.1C 18.4936 23.5 19.7936 22.1 21.4936 22.1C 23.0936 22.1 24.4936 23.4 24.4936 25.1C 24.4936 26.7 23.1936 28.1 21.4936 28.1ZM 38.3936 25.1C 38.3936 22.4 36.1936 20.1 33.3936 20.1C 30.6936 20.1 28.3936 22.3 28.3936 25.1C 28.3936 27.8 30.5936 30.1 33.3936 30.1C 36.1936 30.1 38.3936 27.8 38.3936 25.1ZM 33.4936 28.1C 31.8936 28.1 30.4936 26.8 30.4936 25.1C 30.4936 23.5 31.7936 22.1 33.4936 22.1C 35.0936 22.1 36.4936 23.4 36.4936 25.1C 36.4936 26.7 35.0936 28.1 33.4936 28.1ZM 15.5936 32C 12.8936 32 10.5936 34.2 10.5936 37C 10.5936 39.8 12.7936 42 15.5936 42C 18.2936 42 20.5936 39.8 20.5936 37C 20.5936 34.2 18.2936 32 15.5936 32ZM 15.5936 40C 13.9936 40 12.5936 38.7 12.5936 37C 12.5936 35.4 13.8936 34 15.5936 34C 17.1936 34 18.5936 35.3 18.5936 37C 18.4936 38.7 17.1936 40 15.5936 40ZM 27.4936 32C 24.7936 32 22.4936 34.2 22.4936 37C 22.4936 39.8 24.6936 42 27.4936 42C 30.1936 42 32.4936 39.8 32.4936 37C 32.4936 34.2 30.1936 32 27.4936 32ZM 27.4936 40C 25.8936 40 24.4936 38.7 24.4936 37C 24.4936 35.4 25.7936 34 27.4936 34C 29.0936 34 30.4936 35.3 30.4936 37C 30.4936 38.7 29.0936 40 27.4936 40ZM 39.3936 32C 36.6936 32 34.3936 34.2 34.3936 37C 34.3936 39.8 36.5936 42 39.3936 42C 42.0936 42 44.3936 39.8 44.3936 37C 44.3936 34.2 42.1936 32 39.3936 32ZM 39.3936 40C 37.7936 40 36.3936 38.7 36.3936 37C 36.3936 35.4 37.6936 34 39.3936 34C 40.9936 34 42.3936 35.3 42.3936 37C 42.3936 38.7 41.0936 40 39.3936 40Z"/>
</defs>
</svg>
