<svg width="55" height="49" viewBox="0 0 55 49" version="1.1" xmlns="http://www.w3.org/2000/svg" xmlns:xlink="http://www.w3.org/1999/xlink">
<title>arrows-0017</title>
<desc>Created using Figma</desc>
<g id="Canvas" transform="translate(-774 559)">
<g id="arrows-0017">
<g id="Group">
<g id="Group">
<g id="Vector">
<use xlink:href="#path0_fill" transform="translate(774 -559)" fill="#FFFFFF"/>
</g>
</g>
</g>
</g>
</g>
<defs>
<path id="path0_fill" d="M 53.5 23.4L 3.8 23.4L 25.5 1.7C 25.9 1.3 25.9 0.7 25.5 0.3C 25.1 -0.1 24.5 -0.1 24.1 0.3L 0 24.4L 24.1 48.5C 24.3 48.7 24.6 48.8 24.8 48.8C 25 48.8 25.3 48.7 25.5 48.5C 25.9 48.1 25.9 47.5 25.5 47.1L 3.8 25.4L 53.4 25.4C 54 25.4 54.4 25 54.4 24.4C 54.4 23.8 54 23.4 53.5 23.4Z"/>
</defs>
</svg>
