<svg width="60" height="51" viewBox="0 0 60 51" version="1.1" xmlns="http://www.w3.org/2000/svg" xmlns:xlink="http://www.w3.org/1999/xlink">
<title>business-0386</title>
<desc>Created using Figma</desc>
<g id="Canvas" transform="translate(-590 559)">
<g id="business-0386">
<g id="Vector">
<use xlink:href="#path0_fill" transform="translate(590 -559)" fill="#FFFFFF"/>
</g>
</g>
</g>
<defs>
<path id="path0_fill" d="M 52.2826 27.848L 60 20.0942L 40 0L 32.2826 7.75375L 33.8043 9.28266L 30.7609 12.3405L 27.7174 9.28266L 29.2391 7.75375L 21.5217 0L 0 21.6231L 7.71739 29.3769L 9.23913 27.848L 32.2826 51L 50.7609 32.4347L 47.7174 29.3769L 50.7609 26.3191L 52.2826 27.848L 52.2826 27.848ZM 3.04348 21.6231L 21.5217 3.05782L 26.087 7.75375L 7.6087 26.3191L 3.04348 21.6231L 3.04348 21.6231ZM 45.3261 34.728L 38.3696 27.7388C 37.9348 27.3019 37.2826 27.3019 36.8478 27.7388C 36.413 28.1756 36.413 28.8308 36.8478 29.2677L 43.8043 36.257L 40.7609 39.3148L 33.8043 32.3255C 33.3696 31.8887 32.7174 31.8887 32.2826 32.3255C 31.8478 32.7623 31.8478 33.4176 32.2826 33.8544L 39.2391 40.8437L 36.1957 43.9015L 29.2391 36.9122C 28.8043 36.4754 28.1522 36.4754 27.7174 36.9122C 27.2826 37.349 27.2826 38.0043 27.7174 38.4411L 34.6739 45.4304L 32.3913 47.7238L 10.7609 26.2098L 26.087 10.8116L 29.1304 13.8694L 20.6522 22.3876L 26.8478 28.6124L 35.3261 20.0942L 47.6087 32.4347L 45.3261 34.728L 45.3261 34.728ZM 46.087 27.848L 36.087 17.8009C 35.6522 17.364 35 17.364 34.5652 17.8009L 26.8478 25.5546L 23.8043 22.4968L 31.5217 14.743L 35.3261 10.9208L 49.1304 24.7902L 46.087 27.848L 46.087 27.848ZM 40 3.05782L 56.9565 20.0942L 52.3913 24.6809L 35.3261 7.75375L 40 3.05782L 40 3.05782Z"/>
</defs>
</svg>
